<?xml version="1.0" encoding="UTF-8" standalone="no"?>
<!-- Created with Inkscape (http://www.inkscape.org/) -->

<svg
   width="512"
   height="512"
   viewBox="0 0 512 512"
   version="1.1"
   id="svg1"
   xmlns="http://www.w3.org/2000/svg"
   xmlns:svg="http://www.w3.org/2000/svg">
  <defs
     id="defs1" />
  <g
     id="layer1">
    <path
       id="path1"
       style="opacity:1;mix-blend-mode:normal;fill:#000000;fill-opacity:1;stroke-width:2.17272"
       d="M 256,0 A 256,256 0 0 0 0,256 256,256 0 0 0 256,512 256,256 0 0 0 512,256 256,256 0 0 0 256,0 Z M 175.35938,117.36719 H 257.625 c 19.36456,0 35.14064,0.88021 47.32812,2.64062 12.18749,1.76042 22.88543,4.60417 32.09376,8.53125 5.95832,2.70833 12.39063,6.29688 19.29687,10.76563 6.90624,4.46874 13.13542,10.56251 18.6875,18.28125 5.68749,7.71874 10.02084,16.92709 13,27.625 2.97916,10.6979 4.46875,22.61459 4.46875,35.75 0,18.0104 -2.03125,35.27606 -6.09375,51.79687 -4.0625,16.52082 -10.08855,31.82293 -18.07813,45.90625 -7.85415,13.94791 -17.33334,26.00001 -28.4375,36.15625 -10.96873,10.02083 -22.00521,17.87501 -33.10937,23.5625 -11.10416,5.55208 -23.63022,9.6823 -37.57813,12.39063 -13.9479,2.57291 -30.46876,3.85937 -49.5625,3.85937 H 119.5 l 2.84375,-13.40625 c 5.68749,-1.625 10.02084,-3.85938 13,-6.70312 3.11458,-2.84375 5.75521,-6.83855 7.92187,-11.98438 2.16667,-5.28124 4.33334,-12.86459 6.5,-22.75 l 36.96876,-167.57812 c 1.76041,-7.98958 2.64062,-15.91147 2.64062,-23.76563 0,-5.68749 -1.35417,-9.81771 -4.0625,-12.39062 -2.57291,-2.70833 -6.83855,-4.46875 -12.79688,-5.28125 z m 94.04687,23.76562 c -6.77083,0 -11.98438,0.13542 -15.64063,0.40625 l -50.17187,228.3125 c 6.22916,0.54167 11.23959,0.8125 15.03125,0.8125 17.46873,0 32.50001,-3.45313 45.09375,-10.35937 12.72915,-6.90625 23.96876,-17.40106 33.71875,-31.48438 9.88541,-14.21873 17.60417,-31.48439 23.15625,-51.79687 5.68749,-20.4479 8.53125,-40.96356 8.53125,-61.54688 0,-13.9479 -1.55729,-25.66147 -4.67188,-35.14062 -3.11458,-9.47916 -7.44792,-17.13022 -13,-22.95313 -5.41666,-5.82291 -11.78125,-9.95312 -19.09374,-12.39062 -7.17708,-2.57292 -14.82814,-3.85938 -22.95313,-3.85938 z" />
  </g>
</svg>
